<svg width="24" height="21" viewBox="0 0 24 21" fill="none" xmlns="http://www.w3.org/2000/svg">
<path fill-rule="evenodd" clip-rule="evenodd" d="M6.73649 3.41956C4.65746 3.41956 2.5 5.02715 2.5 7.27818C2.5 9.93468 4.8236 12.3736 7.36118 14.2206C8.60701 15.1273 9.85656 15.8566 10.7965 16.3597C11.2656 16.6109 11.6557 16.8046 11.9269 16.9348C11.9523 16.9471 11.9767 16.9587 12 16.9698C12.0233 16.9587 12.0477 16.9471 12.0731 16.9348C12.3443 16.8046 12.7344 16.6109 13.2035 16.3597C14.1434 15.8566 15.393 15.1273 16.6388 14.2206C19.1764 12.3736 21.5 9.93468 21.5 7.27818C21.5 5.02715 19.3425 3.41956 17.2635 3.41956C15.1581 3.41956 13.4627 4.60701 12.7115 6.53362C12.6094 6.79544 12.3228 6.97204 12 6.97204C11.6772 6.97204 11.3906 6.79544 11.2885 6.53362C10.5373 4.60701 8.84185 3.41956 6.73649 3.41956ZM12 17.6988L12.3426 18.2691C12.1276 18.3636 11.8725 18.3636 11.6574 18.2691L12 17.6988ZM1 7.27818C1 4.31892 3.82903 2.13721 6.73649 2.13721C9.02981 2.13721 10.8808 3.1855 12 4.79153C13.1192 3.1855 14.9702 2.13721 17.2635 2.13721C20.171 2.13721 23 4.31892 23 7.27818C23 10.5425 20.1986 13.3138 17.6112 15.197C16.2945 16.1553 14.9816 16.921 13.9996 17.4466C13.5078 17.7098 13.0971 17.9139 12.8078 18.0529C12.6631 18.1224 12.5486 18.1756 12.4694 18.2119C12.4299 18.23 12.3991 18.2439 12.3777 18.2535L12.3529 18.2646L12.3459 18.2677L12.3438 18.2686C12.3435 18.2687 12.3426 18.2691 12 17.6988C11.6574 18.2691 11.6576 18.2693 11.6574 18.2691L11.6541 18.2677L11.6471 18.2646L11.6223 18.2535C11.6009 18.2439 11.5701 18.23 11.5306 18.2119C11.4514 18.1756 11.3369 18.1224 11.1922 18.0529C10.9029 17.9139 10.4922 17.7098 10.0004 17.4466C9.01844 16.921 7.70549 16.1553 6.38882 15.197C3.80141 13.3138 1 10.5425 1 7.27818Z" fill="#E0E0E0"/>
</svg>
